<svg xmlns="http://www.w3.org/2000/svg" viewBox="0 0 64 64">
  <defs>
    <linearGradient id="night" x1="0" x2="1" y1="0" y2="1">
      <stop offset="0" stop-color="#2b2b2d"/>
      <stop offset="1" stop-color="#0f0f10"/>
    </linearGradient>
    <linearGradient id="crimson" x1="0" x2="1" y1="0" y2="1">
      <stop offset="0" stop-color="#ef233c"/>
      <stop offset="1" stop-color="#7b111d"/>
    </linearGradient>
  </defs>
  <rect width="64" height="64" rx="13" fill="url(#night)"/>
  <path d="M10 53h44" stroke="#ef233c" stroke-width="4" stroke-linecap="round"/>
  <path d="M14 52V23l8-5v34zM26 52V12l11 6v34zM41 52V27l9-4v29z" fill="#1a1a1c" stroke="#f8f0e8" stroke-width="2.2" stroke-linejoin="round"/>
  <path d="M18 28h4M18 36h4M18 44h4M30 22h4M30 31h4M30 40h4M45 34h3M45 43h3" stroke="#ef233c" stroke-width="2" stroke-linecap="round"/>
  <path d="M9 21c7-4 11-10 23-8 9 2 14 7 23 3" fill="none" stroke="url(#crimson)" stroke-width="3" stroke-linecap="round"/>
</svg>
